# xmcd
#
# Track frame offsets: 
#        150
#        13192
#        25210
#        38165
#        48783
#        61838
#        74993
#        90368
#        99133
#        112077
#        122395
#        133721
#        144780
#        155690
#        169327
#        179083
#        193436
#        206127
#        218825
#        230175
#
# Disc length: 3238 seconds
#
# Revision: 2
# Processed by: cddbd v1.5.2PL0 Copyright (c) Steve Scherf et al.
# Submitted via: ExactAudioCopy v1.0b3
#
DISCID=2a0ca414
DTITLE=Various Artist - 100 Hits - Northern Soul [Disc 2]
DYEAR=2016
DGENRE=Soul
TTITLE0=Payne, Freda - Band Of Gold
TTITLE1=Chairmen Of The Board, The - Give Me Just A Little More Time
TTITLE2=Wilson, Jackie - I Get The Sweetest Feeling
TTITLE3=Just Brothers, The - Sliced Tomatoes
TTITLE4=Davis, Tyrone - Turn Back The Hands Of Time
TTITLE5=Acklin, Barbara - Love Makes A Woman
TTITLE6=Mitchell, Willie - That Driving Beat
TTITLE7=Edwards, Gloria - Lonely Girl
TTITLE8=Knight, Robert - Branded
TTITLE9=Beverly Ann - You've Got Your Mind On Other Things
TTITLE10=Scott, Sharon - I'd Like To Know
TTITLE11=Valentine, Rose - I've Gotta Know Right Now
TTITLE12=Courtney, Lou - Trying To Find My Woman
TTITLE13=Little Richard - A Little Bit Of Something (Beats A Whole Lot
TTITLE13=Of Nothing)
TTITLE14=Chandler, Gene - Mr. Big Shot
TTITLE15=Philly Devotions, The - I Just Can't Say Goodbye
TTITLE16=Spiral Starecase - More Today Than Yesterday
TTITLE17=Ward, Herb - Honest To Goodness
TTITLE18=Mitchell, Stanley - Get It Baby
TTITLE19=Jackson, Walter - Let Me Come Back
EXTD=
EXTT0=
EXTT1=
EXTT2=
EXTT3=
EXTT4=
EXTT5=
EXTT6=
EXTT7=
EXTT8=
EXTT9=
EXTT10=
EXTT11=
EXTT12=
EXTT13=
EXTT14=
EXTT15=
EXTT16=
EXTT17=
EXTT18=
EXTT19=
PLAYORDER=
